<svg id="visual" viewBox="0 0 1920 1080" width="1920" height="1080" xmlns="http://www.w3.org/2000/svg" xmlns:xlink="http://www.w3.org/1999/xlink" version="1.1"><rect width="1920" height="1080" fill="#F9f9f9"></rect><g><g transform="translate(1172 689)"><path d="M0 -123.1L96.2 -76.8L120 27.4L53.4 110.9L-53.4 110.9L-120 27.4L-96.2 -76.8Z" fill="#00853e"></path></g><g transform="translate(1306 366)"><path d="M0 -68L53.2 -42.4L66.3 15.1L29.5 61.3L-29.5 61.3L-66.3 15.1L-53.2 -42.4Z" fill="#00853e"></path></g><g transform="translate(606 1008)"><path d="M0 -78L61 -48.6L76 17.4L33.8 70.3L-33.8 70.3L-76 17.4L-61 -48.6Z" fill="#00853e"></path></g><g transform="translate(883 546)"><path d="M0 -64L50 -39.9L62.4 14.2L27.8 57.7L-27.8 57.7L-62.4 14.2L-50 -39.9Z" fill="#00853e"></path></g><g transform="translate(520 392)"><path d="M0 -70L54.7 -43.6L68.2 15.6L30.4 63.1L-30.4 63.1L-68.2 15.6L-54.7 -43.6Z" fill="#00853e"></path></g><g transform="translate(816 41)"><path d="M0 -64L50 -39.9L62.4 14.2L27.8 57.7L-27.8 57.7L-62.4 14.2L-50 -39.9Z" fill="#00853e"></path></g><g transform="translate(1005 259)"><path d="M0 -84L65.7 -52.4L81.9 18.7L36.4 75.7L-36.4 75.7L-81.9 18.7L-65.7 -52.4Z" fill="#00853e"></path></g><g transform="translate(236 645)"><path d="M0 -53L41.4 -33L51.7 11.8L23 47.8L-23 47.8L-51.7 11.8L-41.4 -33Z" fill="#00853e"></path></g><g transform="translate(1778 244)"><path d="M0 -58L45.3 -36.2L56.5 12.9L25.2 52.3L-25.2 52.3L-56.5 12.9L-45.3 -36.2Z" fill="#00853e"></path></g><g transform="translate(264 114)"><path d="M0 -107L83.7 -66.7L104.3 23.8L46.4 96.4L-46.4 96.4L-104.3 23.8L-83.7 -66.7Z" fill="#00853e"></path></g><g transform="translate(1309 99)"><path d="M0 -58L45.3 -36.2L56.5 12.9L25.2 52.3L-25.2 52.3L-56.5 12.9L-45.3 -36.2Z" fill="#00853e"></path></g><g transform="translate(1228 987)"><path d="M0 -46L36 -28.7L44.8 10.2L20 41.4L-20 41.4L-44.8 10.2L-36 -28.7Z" fill="#00853e"></path></g><g transform="translate(730 767)"><path d="M0 -51L39.9 -31.8L49.7 11.3L22.1 45.9L-22.1 45.9L-49.7 11.3L-39.9 -31.8Z" fill="#00853e"></path></g><g transform="translate(1696 697)"><path d="M0 -90L70.4 -56.1L87.7 20L39 81.1L-39 81.1L-87.7 20L-70.4 -56.1Z" fill="#00853e"></path></g><g transform="translate(476 783)"><path d="M0 -88L68.8 -54.9L85.8 19.6L38.2 79.3L-38.2 79.3L-85.8 19.6L-68.8 -54.9Z" fill="#00853e"></path></g><g transform="translate(89 891)"><path d="M0 -115L89.9 -71.7L112.1 25.6L49.9 103.6L-49.9 103.6L-112.1 25.6L-89.9 -71.7Z" fill="#00853e"></path></g><g transform="translate(1505 867)"><path d="M0 -87L68 -54.2L84.8 19.4L37.7 78.4L-37.7 78.4L-84.8 19.4L-68 -54.2Z" fill="#00853e"></path></g><g transform="translate(363 1076)"><path d="M0 -52L40.7 -32.4L50.7 11.6L22.6 46.9L-22.6 46.9L-50.7 11.6L-40.7 -32.4Z" fill="#00853e"></path></g><g transform="translate(1903 864)"><path d="M0 -95L74.3 -59.2L92.6 21.1L41.2 85.6L-41.2 85.6L-92.6 21.1L-74.3 -59.2Z" fill="#00853e"></path></g><g transform="translate(1648 29)"><path d="M0 -66L51.6 -41.2L64.3 14.7L28.6 59.5L-28.6 59.5L-64.3 14.7L-51.6 -41.2Z" fill="#00853e"></path></g></g></svg>