<svg id="visual" viewBox="0 0 1920 1080" width="1920" height="1080" xmlns="http://www.w3.org/2000/svg" xmlns:xlink="http://www.w3.org/1999/xlink" version="1.1"><rect x="0" y="0" width="1920" height="1080" fill="#333333"></rect><path d="M0 550L45.7 555.8C91.3 561.7 182.7 573.3 274.2 597C365.7 620.7 457.3 656.3 548.8 652.5C640.3 648.7 731.7 605.3 823 612.5C914.3 619.7 1005.7 677.3 1097 687.7C1188.3 698 1279.7 661 1371.2 657.2C1462.7 653.3 1554.3 682.7 1645.8 698C1737.3 713.3 1828.7 714.7 1874.3 715.3L1920 716L1920 1081L1874.3 1081C1828.7 1081 1737.3 1081 1645.8 1081C1554.3 1081 1462.7 1081 1371.2 1081C1279.7 1081 1188.3 1081 1097 1081C1005.7 1081 914.3 1081 823 1081C731.7 1081 640.3 1081 548.8 1081C457.3 1081 365.7 1081 274.2 1081C182.7 1081 91.3 1081 45.7 1081L0 1081Z" fill="#f9f9f9"></path><path d="M0 647L45.7 669.5C91.3 692 182.7 737 274.2 753.7C365.7 770.3 457.3 758.7 548.8 735.8C640.3 713 731.7 679 823 680.5C914.3 682 1005.7 719 1097 738.3C1188.3 757.7 1279.7 759.3 1371.2 742.7C1462.7 726 1554.3 691 1645.8 672C1737.3 653 1828.7 650 1874.3 648.5L1920 647L1920 1081L1874.3 1081C1828.7 1081 1737.3 1081 1645.8 1081C1554.3 1081 1462.7 1081 1371.2 1081C1279.7 1081 1188.3 1081 1097 1081C1005.7 1081 914.3 1081 823 1081C731.7 1081 640.3 1081 548.8 1081C457.3 1081 365.7 1081 274.2 1081C182.7 1081 91.3 1081 45.7 1081L0 1081Z" fill="#c4dcc8"></path><path d="M0 742L45.7 751.7C91.3 761.3 182.7 780.7 274.2 783.3C365.7 786 457.3 772 548.8 784.2C640.3 796.3 731.7 834.7 823 830C914.3 825.3 1005.7 777.7 1097 769.5C1188.3 761.3 1279.7 792.7 1371.2 792.8C1462.7 793 1554.3 762 1645.8 754.8C1737.3 747.7 1828.7 764.3 1874.3 772.7L1920 781L1920 1081L1874.3 1081C1828.7 1081 1737.3 1081 1645.8 1081C1554.3 1081 1462.7 1081 1371.2 1081C1279.7 1081 1188.3 1081 1097 1081C1005.7 1081 914.3 1081 823 1081C731.7 1081 640.3 1081 548.8 1081C457.3 1081 365.7 1081 274.2 1081C182.7 1081 91.3 1081 45.7 1081L0 1081Z" fill="#8fbf98"></path><path d="M0 877L45.7 888.2C91.3 899.3 182.7 921.7 274.2 934.8C365.7 948 457.3 952 548.8 941.2C640.3 930.3 731.7 904.7 823 885C914.3 865.3 1005.7 851.7 1097 848.5C1188.3 845.3 1279.7 852.7 1371.2 867.7C1462.7 882.7 1554.3 905.3 1645.8 918.2C1737.3 931 1828.7 934 1874.3 935.5L1920 937L1920 1081L1874.3 1081C1828.7 1081 1737.3 1081 1645.8 1081C1554.3 1081 1462.7 1081 1371.2 1081C1279.7 1081 1188.3 1081 1097 1081C1005.7 1081 914.3 1081 823 1081C731.7 1081 640.3 1081 548.8 1081C457.3 1081 365.7 1081 274.2 1081C182.7 1081 91.3 1081 45.7 1081L0 1081Z" fill="#58a26a"></path><path d="M0 935L45.7 941C91.3 947 182.7 959 274.2 961.8C365.7 964.7 457.3 958.3 548.8 949.5C640.3 940.7 731.7 929.3 823 933.3C914.3 937.3 1005.7 956.7 1097 967.8C1188.3 979 1279.7 982 1371.2 985.2C1462.7 988.3 1554.3 991.7 1645.8 998.2C1737.3 1004.7 1828.7 1014.3 1874.3 1019.2L1920 1024L1920 1081L1874.3 1081C1828.7 1081 1737.3 1081 1645.8 1081C1554.3 1081 1462.7 1081 1371.2 1081C1279.7 1081 1188.3 1081 1097 1081C1005.7 1081 914.3 1081 823 1081C731.7 1081 640.3 1081 548.8 1081C457.3 1081 365.7 1081 274.2 1081C182.7 1081 91.3 1081 45.7 1081L0 1081Z" fill="#00853e"></path></svg>