<svg id="visual" viewBox="0 0 1920 1080" width="1920" height="1080" xmlns="http://www.w3.org/2000/svg" xmlns:xlink="http://www.w3.org/1999/xlink" version="1.1"><rect x="0" y="0" width="1920" height="1080" fill="#333333"></rect><path d="M0 751L274 659L549 601L823 750L1097 670L1371 720L1646 715L1920 599L1920 1081L1646 1081L1371 1081L1097 1081L823 1081L549 1081L274 1081L0 1081Z" fill="#00853e"></path><path d="M0 748L274 672L549 800L823 663L1097 678L1371 804L1646 694L1920 744L1920 1081L1646 1081L1371 1081L1097 1081L823 1081L549 1081L274 1081L0 1081Z" fill="#24703c"></path><path d="M0 849L274 837L549 786L823 759L1097 801L1371 816L1646 744L1920 779L1920 1081L1646 1081L1371 1081L1097 1081L823 1081L549 1081L274 1081L0 1081Z" fill="#2f5b3a"></path><path d="M0 891L274 857L549 823L823 955L1097 855L1371 823L1646 890L1920 915L1920 1081L1646 1081L1371 1081L1097 1081L823 1081L549 1081L274 1081L0 1081Z" fill="#334737"></path><path d="M0 1000L274 978L549 930L823 927L1097 917L1371 943L1646 1018L1920 995L1920 1081L1646 1081L1371 1081L1097 1081L823 1081L549 1081L274 1081L0 1081Z" fill="#333333"></path></svg>