<svg id="visual" viewBox="0 0 900 600" width="900" height="600" xmlns="http://www.w3.org/2000/svg" xmlns:xlink="http://www.w3.org/1999/xlink" version="1.1"><g stroke-width="1" stroke-linejoin="bevel"><path d="M469 330L408 425L476 396Z" fill="#0e793a" stroke="#0e793a"></path><path d="M469 330L399 277L408 425Z" fill="#0e793a" stroke="#0e793a"></path><path d="M282 401L379 464L408 425Z" fill="#1a6132" stroke="#1a6132"></path><path d="M408 425L480 534L476 396Z" fill="#1c552e" stroke="#1c552e"></path><path d="M399 277L282 401L408 425Z" fill="#166d36" stroke="#166d36"></path><path d="M483 173L363 219L399 277Z" fill="#1c552e" stroke="#1c552e"></path><path d="M399 277L295 268L282 401Z" fill="#1c3422" stroke="#1c3422"></path><path d="M363 219L295 268L399 277Z" fill="#151515" stroke="#151515"></path><path d="M381 600L480 534L379 464Z" fill="#1a291d" stroke="#1a291d"></path><path d="M379 464L480 534L408 425Z" fill="#00853e" stroke="#00853e"></path><path d="M480 534L602 401L476 396Z" fill="#1c3422" stroke="#1c3422"></path><path d="M476 396L602 401L469 330Z" fill="#1a6132" stroke="#1a6132"></path><path d="M469 330L483 173L399 277Z" fill="#1a291d" stroke="#1a291d"></path><path d="M602 401L608 287L469 330Z" fill="#1a291d" stroke="#1a291d"></path><path d="M608 287L483 173L469 330Z" fill="#1a6132" stroke="#1a6132"></path><path d="M282 401L277 525L379 464Z" fill="#00853e" stroke="#00853e"></path><path d="M317 95L304 189L363 219Z" fill="#166d36" stroke="#166d36"></path><path d="M363 219L304 189L295 268Z" fill="#151515" stroke="#151515"></path><path d="M207 228L203 325L295 268Z" fill="#1c552e" stroke="#1c552e"></path><path d="M295 268L203 325L282 401Z" fill="#00853e" stroke="#00853e"></path><path d="M282 401L200 437L277 525Z" fill="#1a291d" stroke="#1a291d"></path><path d="M203 325L200 437L282 401Z" fill="#1c3422" stroke="#1c3422"></path><path d="M335 600L381 600L379 464Z" fill="#0e793a" stroke="#0e793a"></path><path d="M381 600L504 600L480 534Z" fill="#181f19" stroke="#181f19"></path><path d="M480 534L634 521L602 401Z" fill="#0e793a" stroke="#0e793a"></path><path d="M277 525L335 600L379 464Z" fill="#0e793a" stroke="#0e793a"></path><path d="M200 600L335 600L277 525Z" fill="#151515" stroke="#151515"></path><path d="M304 189L207 228L295 268Z" fill="#166d36" stroke="#166d36"></path><path d="M599 600L634 521L480 534Z" fill="#151515" stroke="#151515"></path><path d="M602 401L685 419L608 287Z" fill="#1d4a2a" stroke="#1d4a2a"></path><path d="M689 472L685 419L602 401Z" fill="#166d36" stroke="#166d36"></path><path d="M685 419L676 265L608 287Z" fill="#1a291d" stroke="#1a291d"></path><path d="M608 287L628 166L483 173Z" fill="#0e793a" stroke="#0e793a"></path><path d="M100 407L167 474L200 437Z" fill="#1d4a2a" stroke="#1d4a2a"></path><path d="M200 437L167 474L277 525Z" fill="#1d4a2a" stroke="#1d4a2a"></path><path d="M100 407L200 437L203 325Z" fill="#151515" stroke="#151515"></path><path d="M634 521L689 472L602 401Z" fill="#1c552e" stroke="#1c552e"></path><path d="M685 419L793 321L676 265Z" fill="#1c3422" stroke="#1c3422"></path><path d="M676 265L628 166L608 287Z" fill="#1a291d" stroke="#1a291d"></path><path d="M504 600L599 600L480 534Z" fill="#166d36" stroke="#166d36"></path><path d="M634 521L686 600L689 472Z" fill="#1a291d" stroke="#1a291d"></path><path d="M596 73L482 83L483 173Z" fill="#1d4a2a" stroke="#1d4a2a"></path><path d="M361 70L317 95L363 219Z" fill="#0e793a" stroke="#0e793a"></path><path d="M304 189L232 96L207 228Z" fill="#166d36" stroke="#166d36"></path><path d="M361 70L363 219L483 173Z" fill="#1d3f26" stroke="#1d3f26"></path><path d="M482 83L361 70L483 173Z" fill="#00853e" stroke="#00853e"></path><path d="M676 265L665 173L628 166Z" fill="#00853e" stroke="#00853e"></path><path d="M628 166L596 73L483 173Z" fill="#1c3422" stroke="#1c3422"></path><path d="M167 474L200 600L277 525Z" fill="#1d4a2a" stroke="#1d4a2a"></path><path d="M113 208L106 308L207 228Z" fill="#166d36" stroke="#166d36"></path><path d="M207 228L106 308L203 325Z" fill="#181f19" stroke="#181f19"></path><path d="M167 474L117 600L200 600Z" fill="#181f19" stroke="#181f19"></path><path d="M106 308L100 407L203 325Z" fill="#1c3422" stroke="#1c3422"></path><path d="M294 0L232 96L317 95Z" fill="#00853e" stroke="#00853e"></path><path d="M317 95L232 96L304 189Z" fill="#181f19" stroke="#181f19"></path><path d="M665 173L596 73L628 166Z" fill="#166d36" stroke="#166d36"></path><path d="M482 83L385 0L361 70Z" fill="#181f19" stroke="#181f19"></path><path d="M136 131L113 208L207 228Z" fill="#151515" stroke="#151515"></path><path d="M599 600L686 600L634 521Z" fill="#00853e" stroke="#00853e"></path><path d="M0 385L94 504L100 407Z" fill="#151515" stroke="#151515"></path><path d="M100 407L94 504L167 474Z" fill="#1c3422" stroke="#1c3422"></path><path d="M502 0L385 0L482 83Z" fill="#181f19" stroke="#181f19"></path><path d="M361 70L294 0L317 95Z" fill="#0e793a" stroke="#0e793a"></path><path d="M834 374L685 419L689 472Z" fill="#1a291d" stroke="#1a291d"></path><path d="M834 374L793 321L685 419Z" fill="#1d3f26" stroke="#1d3f26"></path><path d="M676 265L828 237L665 173Z" fill="#151515" stroke="#151515"></path><path d="M690 0L580 0L596 73Z" fill="#00853e" stroke="#00853e"></path><path d="M206 0L136 131L232 96Z" fill="#1a291d" stroke="#1a291d"></path><path d="M232 96L136 131L207 228Z" fill="#1c3422" stroke="#1c3422"></path><path d="M596 73L502 0L482 83Z" fill="#1c552e" stroke="#1c552e"></path><path d="M686 600L762 538L689 472Z" fill="#1a291d" stroke="#1a291d"></path><path d="M94 504L117 600L167 474Z" fill="#166d36" stroke="#166d36"></path><path d="M385 0L294 0L361 70Z" fill="#1a6132" stroke="#1a6132"></path><path d="M729 69L596 73L665 173Z" fill="#00853e" stroke="#00853e"></path><path d="M596 73L580 0L502 0Z" fill="#1a291d" stroke="#1a291d"></path><path d="M762 538L834 374L689 472Z" fill="#1d3f26" stroke="#1d3f26"></path><path d="M793 321L828 237L676 265Z" fill="#166d36" stroke="#166d36"></path><path d="M106 308L0 385L100 407Z" fill="#181f19" stroke="#181f19"></path><path d="M94 504L0 539L117 600Z" fill="#1a291d" stroke="#1a291d"></path><path d="M0 306L0 385L106 308Z" fill="#00853e" stroke="#00853e"></path><path d="M0 306L106 308L0 216Z" fill="#151515" stroke="#151515"></path><path d="M900 335L828 237L793 321Z" fill="#166d36" stroke="#166d36"></path><path d="M769 95L729 69L665 173Z" fill="#1c552e" stroke="#1c552e"></path><path d="M294 0L206 0L232 96Z" fill="#1a6132" stroke="#1a6132"></path><path d="M0 216L106 308L113 208Z" fill="#0e793a" stroke="#0e793a"></path><path d="M0 216L113 208L136 131Z" fill="#0e793a" stroke="#0e793a"></path><path d="M828 237L769 95L665 173Z" fill="#1a291d" stroke="#1a291d"></path><path d="M0 74L0 216L136 131Z" fill="#1d3f26" stroke="#1d3f26"></path><path d="M793 0L690 0L729 69Z" fill="#1c552e" stroke="#1c552e"></path><path d="M729 69L690 0L596 73Z" fill="#0e793a" stroke="#0e793a"></path><path d="M0 385L0 539L94 504Z" fill="#1d4a2a" stroke="#1d4a2a"></path><path d="M686 600L833 600L762 538Z" fill="#151515" stroke="#151515"></path><path d="M900 504L900 388L834 374Z" fill="#00853e" stroke="#00853e"></path><path d="M900 504L834 374L762 538Z" fill="#0e793a" stroke="#0e793a"></path><path d="M834 374L900 335L793 321Z" fill="#1c3422" stroke="#1c3422"></path><path d="M828 237L900 109L769 95Z" fill="#1c3422" stroke="#1c3422"></path><path d="M900 388L900 335L834 374Z" fill="#166d36" stroke="#166d36"></path><path d="M0 539L0 600L117 600Z" fill="#1d4a2a" stroke="#1d4a2a"></path><path d="M833 600L900 504L762 538Z" fill="#00853e" stroke="#00853e"></path><path d="M900 335L900 205L828 237Z" fill="#151515" stroke="#151515"></path><path d="M769 95L793 0L729 69Z" fill="#1d4a2a" stroke="#1d4a2a"></path><path d="M206 0L71 0L136 131Z" fill="#00853e" stroke="#00853e"></path><path d="M71 0L0 74L136 131Z" fill="#00853e" stroke="#00853e"></path><path d="M900 109L793 0L769 95Z" fill="#1c552e" stroke="#1c552e"></path><path d="M833 600L900 600L900 504Z" fill="#00853e" stroke="#00853e"></path><path d="M900 205L900 109L828 237Z" fill="#0e793a" stroke="#0e793a"></path><path d="M71 0L0 0L0 74Z" fill="#1d4a2a" stroke="#1d4a2a"></path><path d="M900 109L900 0L793 0Z" fill="#1a6132" stroke="#1a6132"></path></g></svg>